<?xml version="1.0" standalone="no"?>
<!DOCTYPE svg PUBLIC "-//W3C//DTD SVG 20010904//EN"
 "http://www.w3.org/TR/2001/REC-SVG-20010904/DTD/svg10.dtd">
<svg version="1.0" xmlns="http://www.w3.org/2000/svg"
 width="106.000000pt" height="106.000000pt" viewBox="0 0 106.000000 106.000000"
 preserveAspectRatio="xMidYMid meet">

<g transform="translate(0.000000,106.000000) scale(0.100000,-0.100000)"
fill="#000000" stroke="none">
<path d="M455 1024 c-226 -35 -405 -244 -405 -474 0 -269 212 -480 483 -480
127 0 234 46 327 139 108 109 146 214 138 377 -4 80 -10 103 -41 169 -57 119
-157 207 -284 249 -51 17 -168 27 -218 20z m149 -216 c14 -13 48 -77 77 -143
57 -134 64 -144 81 -127 9 9 6 22 -12 57 -18 35 -21 51 -13 63 19 32 47 20 75
-33 45 -82 32 -134 -41 -156 -55 -16 -77 0 -113 79 -92 205 -97 214 -120 210
-13 -2 -24 -11 -26 -21 -2 -9 26 -75 62 -146 83 -164 85 -206 10 -237 -29 -12
-39 -12 -67 0 -29 11 -39 26 -69 97 -19 46 -38 92 -41 102 -4 9 -11 17 -16 17
-7 0 -12 -62 -13 -162 -3 -152 -4 -163 -22 -166 -38 -8 -46 23 -46 173 0 186
14 225 82 225 42 0 65 -28 104 -124 37 -94 59 -121 71 -89 4 11 -18 65 -60
148 -37 71 -67 140 -67 153 1 84 103 134 164 80z"/>
</g>
</svg>
